<svg width="134" height="98" viewBox="0 0 134 98" fill="none" xmlns="http://www.w3.org/2000/svg">
<path fill-rule="evenodd" clip-rule="evenodd" d="M61.816 1.3218C58.3912 4.81509 51.2245 7.14759 39.6166 8.54649C18.7179 11.0645 9.16513 14.9075 2.36011 23.5341C0.86348 25.4311 0.60255 26.0655 1.00734 26.8215C1.46769 27.6822 1.64726 27.5969 3.20193 25.7808C6.54244 21.8778 11.7992 19.3503 18.7908 18.2843C20.5642 18.0139 26.2566 17.5506 31.4404 17.2539C36.6243 16.9573 42.975 16.2876 45.5535 15.7647C55.2927 13.7909 61.3408 9.02718 63.3409 1.75437C63.9506 -0.461555 63.6485 -0.547374 61.816 1.3218ZM116.519 21.3276C115.333 25.2307 112.873 30.3952 110.225 34.5413C104.072 44.1734 95.3341 47.9926 93.3375 41.9218C92.1539 38.3238 94.409 31.8095 97.8988 28.7453C99.8736 27.0115 100.719 26.8196 101.617 27.9015C103.035 29.6099 100.315 34.3077 97.1482 35.6193C96.1879 36.0171 95.6958 36.538 95.8014 37.0444C96.1834 38.8804 102.427 36.7235 105.204 33.7967C106.685 32.2351 108.083 29.2587 108.083 27.6648C108.083 24.5545 104.872 22.2647 101.508 22.9755C97.1155 23.9032 91.9187 28.3177 89.4245 33.2396C87.848 36.351 86.5974 41.2952 86.8941 43.2443C87.1977 45.2399 86.6704 46.1869 84.512 47.5209C83.1875 48.3394 82.241 48.5487 80.6615 48.3721C78.2893 48.1067 72.2289 46.934 71.903 46.677C71.7849 46.5843 74.3684 43.7771 77.6435 40.4395C85.014 32.9286 85.9476 31.6433 85.5026 29.6184C85.3196 28.785 84.8314 27.9729 84.4177 27.8142C84.004 27.6554 81.0673 28.3618 77.8915 29.3837C70.897 31.6349 67.0192 32.1235 65.3619 30.9622C63.8102 29.8753 63.4367 29.9423 63.4367 31.3075C63.4367 32.7743 61.5402 38.3407 59.552 42.711C53.8323 55.2798 49.7095 56.385 52.5366 44.5911C53.0858 42.3003 53.4633 40.3537 53.375 40.2659C53.2872 40.1781 52.3749 40.2426 51.3475 40.4093C49.5602 40.699 49.3811 40.9133 47.1573 45.4245C44.4299 50.9561 41.4962 54.5863 39.9326 54.3631C38.9891 54.2286 38.8864 53.9087 38.9281 51.2369C38.9876 47.4479 41.0755 43.1361 44.2806 40.1811C46.5655 38.0753 48.323 37.5618 49.4357 38.6745C49.8832 39.122 50.2537 39.0461 51.0231 38.3496C52.3203 37.1759 52.2925 36.349 50.9244 35.3911C46.9197 32.5858 38.8497 38.0738 34.9179 46.2762C31.9856 52.3927 31.4444 59.1779 33.7085 61.4419C36.1213 63.8548 39.1974 61.8527 44.8168 54.2133L45.5466 53.2211L45.5654 54.2133C45.6036 56.2729 46.6513 58.9343 47.629 59.4577C51.2196 61.3794 58.04 52.6001 64.2279 38.0911C65.2547 35.6837 66.0514 34.4361 66.486 34.5562C70.2655 35.5994 71.9417 35.5711 78.3186 34.3553C80.0166 34.0318 79.967 34.1097 76.0451 37.918C73.8396 40.0595 69.8761 43.783 67.237 46.1929C61.7639 51.1898 59.5842 54.313 60.4459 55.9232C61.1424 57.2239 62.0427 57.2155 63.2352 55.8979C63.7546 55.324 65.1426 54.2902 66.3198 53.6001C68.5347 52.3024 69.9445 52.2588 76.4846 53.2871C79.1604 53.7078 82.24 52.3853 85.3226 49.4912L87.9041 47.067L89.3005 48.2416C93.2948 51.603 99.3265 49.8256 105.609 43.4358C108.912 40.0759 114.093 32.6369 116.327 28.0458C117.09 26.4768 117.965 25.1935 118.271 25.1935C118.578 25.1935 119.127 25.751 119.492 26.4331C120.063 27.5007 120.006 28.3211 119.079 32.3551C117.811 37.8764 117.765 39.0391 118.722 41.3305C119.686 43.6372 121.37 44.3813 123.907 43.6213C127.706 42.4833 134.501 33.3949 133.622 30.6269C133.316 29.6625 133.136 29.8034 131.897 31.9732C129.979 35.3305 127.556 37.5951 125.88 37.5951C124.015 37.5951 123.786 36.5653 124.21 30.0752L124.564 24.6483L122.442 22.6883C121.274 21.6109 120.133 20.7289 119.906 20.7289C119.678 20.7289 119.492 20.3271 119.492 19.8359C119.492 18.944 118.612 17.7525 117.953 17.7525C117.761 17.7525 117.116 19.3612 116.519 21.3276ZM19.1594 22.7548C18.6802 23.0341 17.8239 24.1716 17.2569 25.2827C16.1398 27.4724 12.5056 41.3796 9.63143 54.4613C8.64278 58.9631 6.97203 64.8787 5.91888 67.607C1.73507 78.4466 -0.30773 87.1029 0.0375318 92.5269C0.26969 96.173 1.14872 97.425 3.12752 96.9285C7.3659 95.8649 11.2828 84.3864 13.7547 65.785C14.857 57.4893 15.3684 56.4168 20.594 51.4447C23.8511 48.3453 26.5611 46.5059 29.352 45.4999C30.3858 45.1273 31.5987 44.417 32.0471 43.9219C32.7997 43.0905 32.8002 42.959 32.0566 42.2149C31.313 41.4713 31.0094 41.4966 28.1213 42.5414C24.5734 43.8247 21.6203 45.416 18.1127 47.9361L15.6983 49.6703L15.9826 48.2213C16.1388 47.4241 16.8561 43.4239 17.5759 39.3313C18.2957 35.2388 19.4074 30.6626 20.0458 29.162C21.6193 25.4643 21.8887 24.3744 21.5191 23.2092C21.1719 22.1159 20.4839 21.9834 19.1594 22.7548Z" fill="#A9ACB0"/>
</svg>
