<svg width="18" height="18" viewBox="0 0 18 18" fill="none" xmlns="http://www.w3.org/2000/svg">
<g clip-path="url(#clip0)">
<path d="M9.00457 0C10.2206 0.0218912 11.4367 0.0328367 12.6528 0.0656735C13.71 0.0985102 14.7289 0.284585 15.6436 0.853755C16.8268 1.58711 17.5499 2.6543 17.7855 4.01703C17.9224 4.83247 17.9717 5.67528 17.9881 6.50167C18.0155 8.28033 18.0046 10.059 17.9881 11.8376C17.9772 12.7899 17.9443 13.7422 17.6266 14.6561C17.0186 16.3965 15.7861 17.4418 13.9948 17.7811C13.1896 17.9343 12.3515 17.9672 11.5243 17.9836C9.73311 18.0109 7.9364 18 6.13969 17.9836C5.20298 17.9726 4.26081 17.9398 3.35697 17.6224C1.61504 17.0149 0.563301 15.7945 0.218201 14.0049C0.064823 13.1949 0.0264785 12.3521 0.0155229 11.5202C-0.011866 9.74156 -0.000910405 7.96291 0.0155229 6.18425C0.0264785 5.22651 0.0593452 4.27425 0.382534 3.36029C0.990569 1.62542 2.21759 0.574643 4.00883 0.23533C4.81406 0.0820918 5.65216 0.0656735 6.47931 0.0328367C7.31741 0 8.16099 0.0273639 9.00457 0.0273639C9.00457 0.0164184 9.00457 0.0109456 9.00457 0ZM16.4051 9.00821C16.3941 9.00821 16.3831 9.00821 16.3722 9.00821C16.3722 8.24749 16.3941 7.48677 16.3667 6.72606C16.3393 5.96534 16.3174 5.20462 16.2133 4.45485C16.0161 3.06476 15.1123 2.10702 13.7264 1.8498C12.9267 1.70204 12.094 1.67467 11.2778 1.65825C9.7605 1.63089 8.24315 1.63636 6.72581 1.65825C5.95892 1.6692 5.18655 1.69656 4.43062 1.81697C3.13238 2.01946 2.2395 2.76376 1.88893 4.05534C1.75746 4.53694 1.6972 5.05138 1.68077 5.54941C1.64242 7.0599 1.62599 8.57039 1.63147 10.0754C1.63695 11.1645 1.66434 12.2536 1.75198 13.3372C1.87797 14.8313 2.80371 15.8875 4.27724 16.1721C5.077 16.3253 5.90962 16.3527 6.72581 16.3636C8.24315 16.391 9.7605 16.3855 11.2778 16.3691C11.9571 16.3636 12.6418 16.3253 13.3211 16.2542C13.962 16.1885 14.5645 15.9805 15.0794 15.5756C15.923 14.9079 16.2407 13.9884 16.29 12.965C16.3558 11.6461 16.3667 10.3272 16.4051 9.00821Z" fill="#A9ACB0"/>
<path d="M9.00545 13.6272C6.48567 13.6327 4.40958 11.5804 4.37124 9.11218C4.3329 6.49071 6.4528 4.38916 8.97259 4.38916C11.5143 4.39463 13.5849 6.43051 13.6232 8.90421C13.6671 11.5093 11.5636 13.6436 9.00545 13.6272ZM9.00545 12.0018C10.6488 11.9963 12.0018 10.6446 11.9963 9.00272C11.9909 7.36088 10.6378 6.00911 8.9945 6.01458C7.34568 6.02005 5.99814 7.37183 6.00362 9.01367C6.00362 10.6555 7.36211 12.0073 9.00545 12.0018Z" fill="#A9ACB0"/>
<path d="M13.7984 3.13049C14.412 3.13049 14.883 3.60115 14.883 4.20863C14.883 4.80516 14.412 5.28677 13.8149 5.29224C13.2233 5.29771 12.7193 4.80516 12.7139 4.2141C12.7084 3.61757 13.1959 3.13597 13.7984 3.13049Z" fill="#A9ACB0"/>
</g>
<defs>
<clipPath id="clip0">
<rect width="18" height="18" fill="white"/>
</clipPath>
</defs>
</svg>
