<svg width="14" height="19" viewBox="0 0 14 19" fill="none" xmlns="http://www.w3.org/2000/svg">
<g clip-path="url(#clip0)">
<path d="M6.50338 18.5809C6.13175 18.1385 5.85302 17.6961 5.5743 17.2537C4.18068 15.2185 2.78707 13.0949 1.67217 10.9713C1.11473 9.90952 0.557279 8.84772 0.278556 7.69743C-0.185983 6.19321 -0.000167826 4.77747 0.650187 3.5387C1.67217 1.59206 3.25161 0.530257 5.48139 0.0878393C8.91898 -0.531546 12.3566 1.85751 13.0069 5.13141C13.1927 6.19321 13.0069 7.16653 12.6353 8.13985C12.0778 9.73255 11.2417 11.3253 10.3126 12.8295C9.19771 14.6876 7.9899 16.5458 6.68919 18.4039C6.59629 18.4039 6.59629 18.4924 6.50338 18.5809ZM6.50338 17.1652C6.50338 17.0767 6.59629 17.0767 6.59629 17.0767C7.71118 15.484 8.82607 13.8028 9.84806 12.1216C10.5913 10.8828 11.2417 9.55559 11.7991 8.22833C12.1708 7.25501 12.3566 6.28169 12.1708 5.30837C11.6133 3.0078 10.1268 1.50358 7.71118 1.06116C5.29558 0.441774 3.34451 1.23813 1.85799 3.09628C0.836002 4.51202 0.464371 6.01624 1.11473 7.60895C1.39345 8.4053 1.76508 9.20165 2.13671 9.998C3.25161 12.2101 4.55231 14.3337 5.94593 16.3688C6.13175 16.6343 6.31756 16.8997 6.50338 17.1652Z" fill="black"/>
<path d="M6.59622 7.60959C7.72507 7.60959 8.64019 6.73805 8.64019 5.66295C8.64019 4.58785 7.72507 3.71631 6.59622 3.71631C5.46736 3.71631 4.55225 4.58785 4.55225 5.66295C4.55225 6.73805 5.46736 7.60959 6.59622 7.60959Z" fill="white" stroke="black" stroke-miterlimit="10"/>
</g>
<defs>
<clipPath id="clip0">
<rect width="13.1" height="18.5816" fill="white"/>
</clipPath>
</defs>
</svg>
