<svg width="32" height="23" viewBox="0 0 32 23" fill="none" xmlns="http://www.w3.org/2000/svg">
<path d="M31.0124 3.2875C25.2771 9.0375 19.5913 14.8375 13.8561 20.6375C13.1639 21.3375 12.4717 22.0375 11.7795 22.7375C11.4334 23.0875 11.2356 23.0875 10.8896 22.7375C7.37919 19.1375 3.81938 15.5375 0.259569 11.9375C-0.0865231 11.5875 -0.0865231 11.3875 0.259569 11.0375C1.05064 10.2375 1.84171 9.4375 2.63278 8.6375C2.97887 8.2875 3.17663 8.2875 3.52273 8.6375C6.04426 11.1875 8.56579 13.7375 11.0873 16.2875C11.1862 16.3875 11.2356 16.4875 11.2851 16.5875C11.384 16.4875 11.4829 16.3875 11.5817 16.3375C16.872 10.9875 22.1128 5.6875 27.4031 0.3375C27.8481 -0.1125 27.9964 -0.1125 28.4414 0.3375C29.183 1.0875 29.9246 1.8375 30.6663 2.5875C30.7652 2.6875 30.9135 2.8375 31.0124 2.9875C31.0124 3.0875 31.0124 3.1875 31.0124 3.2875Z" fill="#EF7752"/>
</svg>
