<svg width="17" height="17" viewBox="0 0 17 17" fill="none" xmlns="http://www.w3.org/2000/svg">
<path fill-rule="evenodd" clip-rule="evenodd" d="M7.6063 5.2799C7.6063 7.68846 7.59357 9.6591 7.57803 9.6591C7.56248 9.6591 6.85592 8.88195 6.00788 7.93209C5.15983 6.98224 4.44054 6.20508 4.40945 6.20508C4.37836 6.20508 4.11744 6.46864 3.82955 6.79072L3.30626 7.37636L5.86964 10.2449L8.43307 13.1134L10.9965 10.2449L13.5599 7.37636L13.0366 6.79072C12.7487 6.46864 12.4878 6.20508 12.4567 6.20508C12.4256 6.20508 11.7063 6.98224 10.8583 7.93209C10.0102 8.88195 9.30367 9.6591 9.28812 9.6591C9.27258 9.6591 9.25985 7.68846 9.25985 5.2799V0.900696H8.43307H7.6063V5.2799ZM0.110236 15.642C0.110236 16.1354 0.0890158 16.4438 0.0551181 16.4438C0.0248032 16.4438 0 16.4715 0 16.5055C0 16.5463 2.84779 16.5671 8.43307 16.5671C14.0184 16.5671 16.8661 16.5463 16.8661 16.5055C16.8661 16.4715 16.8413 16.4438 16.811 16.4438C16.7771 16.4438 16.7559 16.1354 16.7559 15.642V14.8401H8.43307H0.110236V15.642Z" fill="#EF7752"/>
</svg>
