<svg width="134" height="98" fill="none" xmlns="http://www.w3.org/2000/svg"><path fill-rule="evenodd" clip-rule="evenodd" d="M61.816 1.322c-3.425 3.493-10.592 5.826-22.2 7.224-20.898 2.519-30.45 6.362-37.256 14.988-1.497 1.897-1.757 2.532-1.353 3.288.46.86.64.775 2.195-1.041 3.34-3.903 8.597-6.43 15.589-7.497 1.773-.27 7.466-.733 12.65-1.03 5.183-.297 11.534-.966 14.113-1.49 9.739-1.973 15.787-6.737 17.787-14.01.61-2.216.307-2.301-1.525-.432zm54.703 20.006c-1.186 3.903-3.646 9.067-6.294 13.213-6.153 9.632-14.89 13.452-16.887 7.38-1.184-3.597 1.071-10.111 4.56-13.176 1.976-1.733 2.821-1.925 3.719-.844 1.418 1.709-1.302 6.407-4.469 7.718-.96.398-1.452.919-1.347 1.425.382 1.836 6.626-.32 9.403-3.247 1.481-1.562 2.879-4.538 2.879-6.132 0-3.11-3.211-5.4-6.575-4.69-4.392.928-9.59 5.343-12.084 10.265-1.576 3.111-2.827 8.055-2.53 10.004.304 1.996-.224 2.943-2.382 4.277-1.325.818-2.271 1.028-3.85.851-2.373-.265-8.433-1.438-8.759-1.695-.118-.093 2.465-2.9 5.74-6.237 7.371-7.511 8.305-8.797 7.86-10.822-.183-.833-.672-1.645-1.085-1.804-.414-.159-3.35.548-6.527 1.57-6.994 2.25-10.872 2.74-12.53 1.578-1.55-1.087-1.924-1.02-1.924.346 0 1.466-1.897 7.033-3.885 11.403-5.72 12.569-9.843 13.674-7.015 1.88.549-2.29.926-4.237.838-4.325-.088-.088-1-.023-2.028.143-1.787.29-1.966.504-4.19 5.016-2.727 5.531-5.66 9.161-7.224 8.938-.944-.134-1.047-.454-1.005-3.126.06-3.79 2.148-8.1 5.353-11.056 2.285-2.106 4.042-2.62 5.155-1.506.447.447.818.371 1.587-.325 1.297-1.174 1.27-2.001-.099-2.959-4.004-2.805-12.074 2.683-16.006 10.885-2.932 6.117-3.474 12.902-1.21 15.166 2.413 2.413 5.49.41 11.109-7.229l.73-.992.018.992c.039 2.06 1.086 4.721 2.064 5.245 3.59 1.921 10.411-6.858 16.599-21.367 1.027-2.407 1.823-3.655 2.258-3.535 3.78 1.043 5.456 1.015 11.833-.2 1.698-.324 1.648-.246-2.274 3.562a480.3 480.3 0 0 1-8.808 8.275c-5.473 4.997-7.653 8.12-6.791 9.73.696 1.3 1.597 1.292 2.79-.025.519-.574 1.907-1.608 3.084-2.298 2.215-1.298 3.625-1.341 10.165-.313 2.675.42 5.755-.902 8.838-3.796l2.581-2.424 1.397 1.175c3.994 3.361 10.025 1.584 16.308-4.806 3.303-3.36 8.484-10.8 10.718-15.39.763-1.57 1.638-2.852 1.944-2.852.307 0 .856.557 1.221 1.24.571 1.067.514 1.887-.413 5.921-1.268 5.521-1.314 6.684-.357 8.976.964 2.306 2.648 3.05 5.185 2.29 3.799-1.138 10.594-10.226 9.715-12.994-.306-.964-.486-.824-1.725 1.346-1.918 3.358-4.341 5.622-6.017 5.622-1.865 0-2.094-1.03-1.67-7.52l.354-5.427-2.122-1.96c-1.168-1.077-2.309-1.96-2.536-1.96-.228 0-.414-.4-.414-.892 0-.892-.88-2.083-1.539-2.083-.192 0-.837 1.608-1.434 3.575zm-97.36 1.427c-.479.28-1.335 1.417-1.902 2.528-1.117 2.19-4.751 16.097-7.626 29.178-.988 4.502-2.659 10.418-3.712 13.146C1.735 78.447-.308 87.103.038 92.527c.232 3.646 1.11 4.898 3.09 4.401 4.238-1.063 8.155-12.542 10.627-31.143 1.102-8.296 1.613-9.368 6.839-14.34 3.257-3.1 5.967-4.94 8.758-5.945 1.034-.373 2.247-1.083 2.695-1.578.753-.831.753-.963.01-1.707-.744-.744-1.048-.718-3.936.326-3.548 1.284-6.5 2.875-10.008 5.395l-2.415 1.734.285-1.449c.156-.797.873-4.797 1.593-8.89.72-4.092 1.831-8.668 2.47-10.169 1.573-3.698 1.843-4.788 1.473-5.953-.347-1.093-1.035-1.226-2.36-.454z" fill="#A9ACB0"/></svg>