<svg width="18" height="18" fill="none" xmlns="http://www.w3.org/2000/svg"><g clip-path="url(#clip0)" fill="#A9ACB0"><path d="M9.005 0c1.216.022 2.432.033 3.648.066 1.057.033 2.076.219 2.99.788 1.184.733 1.907 1.8 2.142 3.163.137.815.187 1.658.203 2.485.027 1.778.017 3.557 0 5.336-.01.952-.044 1.904-.361 2.818-.608 1.74-1.84 2.786-3.632 3.125-.805.153-1.643.186-2.47.203a224.8 224.8 0 0 1-5.385 0c-.937-.011-1.88-.044-2.783-.362-1.742-.607-2.794-1.828-3.139-3.617-.153-.81-.192-1.653-.202-2.485a216.583 216.583 0 0 1 0-5.336c.01-.957.043-1.91.367-2.824C.99 1.625 2.218.575 4.009.235c.805-.153 1.643-.17 2.47-.202C7.317 0 8.161.027 9.005.027V0zm7.4 9.008h-.033c0-.76.022-1.521-.005-2.282-.028-.76-.05-1.521-.154-2.271-.197-1.39-1.1-2.348-2.487-2.605-.8-.148-1.632-.175-2.448-.192a140.25 140.25 0 0 0-4.552 0c-.767.011-1.54.039-2.295.159-1.299.202-2.192.947-2.542 2.238A6.55 6.55 0 0 0 1.68 5.55c-.039 1.51-.055 3.021-.05 4.526.006 1.09.033 2.179.121 3.262.126 1.494 1.052 2.55 2.525 2.835.8.153 1.633.18 2.449.192a157.7 157.7 0 0 0 4.552.005c.68-.005 1.364-.044 2.043-.115.641-.066 1.244-.274 1.758-.678.844-.668 1.162-1.588 1.211-2.611.066-1.319.077-2.638.115-3.957z"/><path d="M9.005 13.627c-2.52.006-4.595-2.047-4.634-4.515C4.333 6.491 6.453 4.39 8.973 4.39c2.541.006 4.612 2.042 4.65 4.515.044 2.605-2.06 4.74-4.618 4.723zm0-1.625c1.644-.006 2.997-1.357 2.991-3a3.008 3.008 0 0 0-3.002-2.987c-1.648.005-2.996 1.357-2.99 2.999a3.006 3.006 0 0 0 3.001 2.988zm4.793-8.872c.614 0 1.085.471 1.085 1.079 0 .596-.471 1.078-1.068 1.083a1.103 1.103 0 0 1-1.101-1.078 1.083 1.083 0 0 1 1.084-1.084z"/></g><defs><clipPath id="clip0"><path fill="#fff" d="M0 0h18v18H0z"/></clipPath></defs></svg>