<svg width="14" height="19" fill="none" xmlns="http://www.w3.org/2000/svg"><g clip-path="url(#clip0)"><path d="M6.503 18.58c-.371-.441-.65-.884-.929-1.326-1.393-2.036-2.787-4.16-3.902-6.283C1.115 9.91.557 8.848.28 7.697-.185 6.193 0 4.777.651 3.539 1.672 1.592 3.252.53 5.481.088c3.438-.62 6.876 1.77 7.526 5.043.186 1.062 0 2.036-.372 3.009-.557 1.593-1.393 3.185-2.322 4.69a94.59 94.59 0 0 1-3.624 5.574c-.093 0-.093.088-.186.177zm0-1.415c0-.088.093-.088.093-.088a92.786 92.786 0 0 0 3.252-4.955A30.758 30.758 0 0 0 11.8 8.228c.372-.973.558-1.946.372-2.92-.558-2.3-2.044-3.804-4.46-4.247-2.415-.62-4.366.177-5.853 2.035C.836 4.512.464 6.016 1.115 7.61c.278.796.65 1.593 1.022 2.389 1.115 2.212 2.415 4.336 3.809 6.37l.557.797z" fill="#000"/><path d="M6.596 7.61c1.13 0 2.044-.872 2.044-1.947 0-1.075-.915-1.947-2.044-1.947s-2.044.872-2.044 1.947c0 1.075.915 1.947 2.044 1.947z" fill="#fff" stroke="#000" stroke-miterlimit="10"/></g><defs><clipPath id="clip0"><path fill="#fff" d="M0 0h13.1v18.582H0z"/></clipPath></defs></svg>