<svg width="17" height="17" fill="none" xmlns="http://www.w3.org/2000/svg"><path fill-rule="evenodd" clip-rule="evenodd" d="M7.606 5.28c0 2.408-.012 4.38-.028 4.38s-.722-.778-1.57-1.728c-.848-.95-1.567-1.727-1.599-1.727-.03 0-.292.264-.58.586l-.523.585 2.564 2.869 2.563 2.868 2.563-2.868 2.564-2.869-.523-.585c-.288-.322-.55-.586-.58-.586-.031 0-.75.777-1.599 1.727-.848.95-1.554 1.727-1.57 1.727-.015 0-.028-1.97-.028-4.38V.902H7.606V5.28zM.11 15.642c0 .493-.021.802-.055.802-.03 0-.055.027-.055.062 0 .04 2.848.061 8.433.061s8.433-.02 8.433-.061c0-.035-.025-.062-.055-.062-.034 0-.055-.309-.055-.802v-.802H.11v.802z" fill="#EF7752"/></svg>